<?xml version="1.0" encoding="iso-8859-1"?>
<!-- Generator: Adobe Illustrator 19.0.0, SVG Export Plug-In . SVG Version: 6.00 Build 0)  -->
<svg version="1.1" id="Layer_1" xmlns="http://www.w3.org/2000/svg" xmlns:xlink="http://www.w3.org/1999/xlink" x="0px" y="0px"
	 viewBox="0 0 495 495" style="enable-background:new 0 0 495 495;" xml:space="preserve">
<g>
	<polygon style="fill:#00969B;" points="247.5,0 247.5,40 455,40 455,455 247.5,455 247.5,495 495,495 495,0 	"/>
	<polygon style="fill:#00B6BD;" points="40,455 40,40 247.5,40 247.5,0 0,0 0,495 247.5,495 247.5,455 	"/>
	<path style="fill:#00B6BD;" d="M247.5,405c81.548,0,147.656-66.107,147.656-147.656c0-81.549-66.107-147.656-147.656-147.656
		c-7.402,0-14.675,0.549-21.785,1.601c-0.093-0.241-0.192-0.475-0.304-0.706c3.944-3.076,6.015-7.33,5.116-11.551
		C229.38,93.629,223.639,90,216.245,90c-1.595,0-3.217,0.175-4.824,0.514c-9.279,1.973-15.426,8.805-13.99,15.555
		c0.871,4.103,4.394,7.179,9.276,8.423c-0.009,0.297-0.003,0.601,0.016,0.901C145.008,133.09,99.844,189.942,99.844,257.344
		C99.844,338.893,165.952,405,247.5,405z M202.244,105.044c-0.832-3.914,3.84-8.363,10.199-9.714
		c1.273-0.271,2.55-0.409,3.803-0.409c4.933,0,8.826,2.113,9.469,5.134c0.49,2.31-0.947,4.803-3.503,6.738
		c-2.163-1.526-4.927-2.19-7.72-1.598c-2.781,0.592-5.029,2.31-6.387,4.572C204.971,109.013,202.719,107.28,202.244,105.044z
		 M136.533,272.395c-0.661-4.948-1.007-9.974-1.007-15.05c0-29.912,11.647-58.029,32.799-79.178
		c13.524-13.524,29.902-23.156,47.773-28.35l13.044,21.158l3.304-24.597c4.95-0.664,9.976-1.007,15.053-1.007
		c29.909,0,58.026,11.647,79.175,32.796c13.524,13.527,23.158,29.905,28.349,47.777l-21.154,13.043l24.597,3.305
		c0.661,4.948,1.007,9.974,1.007,15.054c0,29.908-11.65,58.026-32.799,79.175c-13.524,13.524-29.902,23.155-47.773,28.346
		l-13.044-21.155l-3.304,24.598c-4.95,0.664-9.976,1.006-15.053,1.006c-29.909,0-58.026-11.646-79.175-32.795
		c-13.527-13.524-23.158-29.902-28.349-47.776l21.154-13.041L136.533,272.395z"/>
	<path style="fill:#00B6BD;" d="M231.527,287.856c4.507,2.356,9.499,3.711,14.588,3.914l15.711,32.973l0.943-36.502
		c4.089-2.013,7.723-4.818,10.728-8.291l19.409,6.879l-14.18-14.93c1.95-4.161,3.038-8.625,3.208-13.173l32.964-15.711
		l-36.524-0.944c-0.117-0.234-0.24-0.468-0.36-0.7l46.052-60.595l-60.594,46.052c-4.503-2.356-9.499-3.71-14.585-3.914
		l-15.715-32.973l-0.943,36.505c-4.086,2.01-7.723,4.818-10.728,8.288l-19.409-6.879l14.18,14.93
		c-1.947,4.16-3.035,8.625-3.208,13.176l-32.964,15.708l36.526,0.944c0.115,0.238,0.238,0.468,0.358,0.703l-46.049,60.592
		L231.527,287.856z M274.669,245.773c0.73,1.721,1.313,3.535,1.718,5.431c2.671,12.575-3.094,24.979-13.47,31.327
		c-2.785,1.706-5.9,2.98-9.277,3.698c-2.069,0.441-4.137,0.652-6.167,0.652c-1.277,0-2.542-0.084-3.788-0.244
		c-2.706-0.355-5.302-1.081-7.75-2.123l22.008-16.73L274.669,245.773z M241.36,228.457c2.069-0.438,4.137-0.652,6.17-0.652
		c1.273,0,2.539,0.085,3.782,0.247c2.709,0.354,5.308,1.078,7.756,2.123l-22.011,16.727l-16.727,22.011
		c-0.73-1.722-1.313-3.533-1.718-5.432C215.224,247.53,225.408,231.849,241.36,228.457z"/>
</g>
<g>
</g>
<g>
</g>
<g>
</g>
<g>
</g>
<g>
</g>
<g>
</g>
<g>
</g>
<g>
</g>
<g>
</g>
<g>
</g>
<g>
</g>
<g>
</g>
<g>
</g>
<g>
</g>
<g>
</g>
</svg>
