{
    "asset" : {
        "generator" : "Khronos glTF Blender I/O v1.7.33",
        "version" : "2.0"
    },
    "scene" : 0,
    "scenes" : [
        {
            "name" : "Scene",
            "nodes" : [
                0
            ]
        }
    ],
    "nodes" : [
        {
            "mesh" : 0,
            "name" : "19340_Star_v1"
        }
    ],
    "materials" : [
        {
            "doubleSided" : true,
            "name" : "wire_020020020",
            "pbrMetallicRoughness" : {
                "baseColorFactor" : [
                    0.800000011920929,
                    0.800000011920929,
                    0.800000011920929,
                    1
                ],
                "metallicFactor" : 0,
                "roughnessFactor" : 0.5
            }
        }
    ],
    "meshes" : [
        {
            "name" : "19340_Star_v1",
            "primitives" : [
                {
                    "attributes" : {
                        "POSITION" : 0,
                        "NORMAL" : 1
                    },
                    "indices" : 2,
                    "material" : 0
                }
            ]
        }
    ],
    "accessors" : [
        {
            "bufferView" : 0,
            "componentType" : 5126,
            "count" : 4882,
            "max" : [
                1.895400047302246,
                3.6108999252319336,
                0.569599986076355
            ],
            "min" : [
                -1.892799973487854,
                0.007499999832361937,
                -0.1881999969482422
            ],
            "type" : "VEC3"
        },
        {
            "bufferView" : 1,
            "componentType" : 5126,
            "count" : 4882,
            "type" : "VEC3"
        },
        {
            "bufferView" : 2,
            "componentType" : 5123,
            "count" : 29280,
            "type" : "SCALAR"
        }
    ],
    "bufferViews" : [
        {
            "buffer" : 0,
            "byteLength" : 58584,
            "byteOffset" : 0
        },
        {
            "buffer" : 0,
            "byteLength" : 58584,
            "byteOffset" : 58584
        },
        {
            "buffer" : 0,
            "byteLength" : 58560,
            "byteOffset" : 117168
        }
    ],
    "buffers" : [
        {
            "byteLength" : 175728,
            "uri" : "data:application/octet-stream;base64,"
        }
    ]
}
